<svg width="44" height="44" viewBox="0 0 44 44" fill="none" xmlns="http://www.w3.org/2000/svg">
<g id="Frame" clip-path="url(#clip0_126_1778)">
<path id="Vector" d="M28.9357 9.98695L9.9873 15.0641L11.8552 20.205L29.8884 15.373L28.9357 9.98695Z" fill="#F3F3F3"/>
<path id="Vector_2" d="M11.8555 20.205L18.5804 38.7118L33.318 34.7629L29.8886 15.373L11.8555 20.205Z" fill="#F8E0B3"/>
<path id="Vector_3" d="M23.3887 6.41573L21.2091 6.41588L21.2092 12.0572L23.3885 11.4732L23.3887 6.41573Z" fill="#3A454E"/>
<path id="Vector_4" d="M23.3885 11.4733L21.2091 12.0572L21.2092 17.6985L23.3885 17.1146L23.3885 11.4733Z" fill="#586A77"/>
<path id="Vector_5" d="M29.4862 9.83941L9.4365 15.2117C9.15918 15.286 8.87429 15.1215 8.79999 14.8442L8.78685 14.7952C8.71255 14.5179 8.87703 14.233 9.15434 14.1587L29.2044 8.78631C29.4817 8.712 29.7666 8.87648 29.8409 9.1538L29.854 9.20281C29.928 9.48022 29.7635 9.7651 29.4862 9.83941Z" fill="#E6E6E6"/>
<path id="Vector_6" d="M23.9744 29.3685C24.0493 29.6477 24.2319 29.8858 24.4822 30.0303C24.7325 30.1748 25.03 30.214 25.3092 30.1392C25.5884 30.0644 25.8264 29.8817 25.9709 29.6314C26.1155 29.3811 26.1546 29.0836 26.0798 28.8044C26.005 28.5252 25.8224 28.2872 25.572 28.1427C25.3217 27.9981 25.0243 27.959 24.7451 28.0338C24.4659 28.1086 24.2278 28.2913 24.0833 28.5416C23.9388 28.7919 23.8996 29.0894 23.9744 29.3685Z" fill="#4A3E3E"/>
<path id="Vector_7" d="M26.6439 30.9097C26.7187 31.1889 26.9013 31.427 27.1517 31.5715C27.402 31.716 27.6994 31.7552 27.9786 31.6804C28.2578 31.6056 28.4959 31.4229 28.6404 31.1726C28.7849 30.9223 28.8241 30.6248 28.7493 30.3456C28.6744 30.0664 28.4918 29.8284 28.2415 29.6839C27.9912 29.5393 27.6937 29.5002 27.4145 29.575C27.1353 29.6498 26.8973 29.8324 26.7528 30.0828C26.6082 30.3331 26.5691 30.6306 26.6439 30.9097Z" fill="#4A3E3E"/>
<path id="Vector_8" d="M21.3807 32.3201C21.4555 32.5993 21.6382 32.8373 21.8885 32.9818C22.1388 33.1263 22.4363 33.1655 22.7155 33.0907C22.9946 33.0159 23.2327 32.8332 23.3772 32.5829C23.5217 32.3326 23.5609 32.0351 23.4861 31.7559C23.4113 31.4768 23.2286 31.2387 22.9783 31.0942C22.728 30.9497 22.4305 30.9105 22.1513 30.9853C21.8721 31.0601 21.6341 31.2428 21.4896 31.4931C21.3451 31.7434 21.3059 32.0409 21.3807 32.3201Z" fill="#4A3E3E"/>
<path id="Vector_9" d="M24.0501 33.8613C24.1249 34.1405 24.3076 34.3786 24.5579 34.5231C24.8082 34.6676 25.1057 34.7068 25.3849 34.632C25.6641 34.5572 25.9021 34.3745 26.0466 34.1242C26.1912 33.8739 26.2303 33.5764 26.1555 33.2972C26.0807 33.018 25.898 32.78 25.6477 32.6355C25.3974 32.4909 25.0999 32.4518 24.8208 32.5266C24.5416 32.6014 24.3035 32.784 24.159 33.0344C24.0145 33.2847 23.9753 33.5822 24.0501 33.8613Z" fill="#4A3E3E"/>
<path id="Vector_10" d="M28.5428 33.7857C28.6176 34.0649 28.8003 34.3029 29.0506 34.4475C29.3009 34.592 29.5984 34.6311 29.8776 34.5563C30.1568 34.4815 30.3948 34.2989 30.5393 34.0486C30.6838 33.7982 30.723 33.5008 30.6482 33.2216C30.5734 32.9424 30.3907 32.7044 30.1404 32.5598C29.8901 32.4153 29.5926 32.3762 29.3134 32.451C29.0342 32.5258 28.7962 32.7084 28.6517 32.9587C28.5072 33.2091 28.468 33.5065 28.5428 33.7857Z" fill="#4A3E3E"/>
<path id="Vector_11" d="M18.016 36.6064C18.0908 36.8856 18.2734 37.1236 18.5237 37.2681C18.774 37.4127 19.0715 37.4518 19.3507 37.377C19.6299 37.3022 19.8679 37.1196 20.0125 36.8692C20.157 36.6189 20.1961 36.3215 20.1213 36.0423C20.0465 35.7631 19.8639 35.525 19.6135 35.3805C19.3632 35.236 19.0658 35.1968 18.7866 35.2716C18.5074 35.3465 18.2693 35.5291 18.1248 35.7794C17.9803 36.0297 17.9411 36.3272 18.016 36.6064Z" fill="#4A3E3E"/>
<path id="Vector_12" d="M19.5575 33.9369C19.6323 34.2161 19.8149 34.4541 20.0652 34.5986C20.3155 34.7432 20.613 34.7823 20.8922 34.7075C21.1714 34.6327 21.4094 34.4501 21.554 34.1997C21.6985 33.9494 21.7376 33.652 21.6628 33.3728C21.588 33.0936 21.4054 32.8555 21.1551 32.711C20.9047 32.5665 20.6073 32.5273 20.3281 32.6021C20.0489 32.677 19.8108 32.8596 19.6663 33.1099C19.5218 33.3602 19.4826 33.6577 19.5575 33.9369Z" fill="#4A3E3E"/>
<path id="Vector_13" d="M20.3861 37.0292C20.4609 37.3084 20.6435 37.5464 20.8938 37.6909C21.1442 37.8355 21.4416 37.8746 21.7208 37.7998C22 37.725 22.238 37.5423 22.3826 37.292C22.5271 37.0417 22.5663 36.7442 22.4914 36.4651C22.4166 36.1859 22.234 35.9478 21.9837 35.8033C21.7334 35.6588 21.4359 35.6196 21.1567 35.6944C20.8775 35.7692 20.6395 35.9519 20.4949 36.2022C20.3504 36.4525 20.3113 36.75 20.3861 37.0292Z" fill="#4A3E3E"/>
<path id="Vector_14" d="M22.2269 35.4782C22.3017 35.7574 22.4844 35.9954 22.7347 36.1399C22.985 36.2844 23.2825 36.3236 23.5616 36.2488C23.8408 36.174 24.0789 35.9913 24.2234 35.741C24.3679 35.4907 24.4071 35.1932 24.3323 34.914C24.2575 34.6348 24.0748 34.3968 23.8245 34.2523C23.5742 34.1078 23.2767 34.0686 22.9975 34.1434C22.7183 34.2182 22.4803 34.4009 22.3358 34.6512C22.1912 34.9015 22.1521 35.199 22.2269 35.4782Z" fill="#4A3E3E"/>
<path id="Vector_15" d="M23.5438 36.183C23.6186 36.4622 23.8012 36.7002 24.0516 36.8447C24.3019 36.9893 24.5993 37.0284 24.8785 36.9536C25.1577 36.8788 25.3958 36.6962 25.5403 36.4458C25.6848 36.1955 25.724 35.8981 25.6492 35.6189C25.5743 35.3397 25.3917 35.1016 25.1414 34.9571C24.8911 34.8126 24.5936 34.7734 24.3144 34.8482C24.0352 34.9231 23.7972 35.1057 23.6527 35.356C23.5081 35.6063 23.469 35.9038 23.5438 36.183Z" fill="#4A3E3E"/>
<path id="Vector_16" d="M26.702 35.3367C26.7768 35.6159 26.9594 35.854 27.2098 35.9985C27.4601 36.143 27.7576 36.1822 28.0367 36.1074C28.3159 36.0326 28.554 35.8499 28.6985 35.5996C28.843 35.3493 28.8822 35.0518 28.8074 34.7726C28.7326 34.4934 28.5499 34.2554 28.2996 34.1109C28.0493 33.9663 27.7518 33.9272 27.4726 34.002C27.1934 34.0768 26.9554 34.2595 26.8109 34.5098C26.6663 34.7601 26.6272 35.0576 26.702 35.3367Z" fill="#4A3E3E"/>
<path id="Vector_17" d="M26.1556 33.2972C26.2304 33.5764 26.4131 33.8144 26.6634 33.9589C26.9137 34.1035 27.2112 34.1426 27.4904 34.0678C27.7695 33.993 28.0076 33.8104 28.1521 33.56C28.2966 33.3097 28.3358 33.0122 28.261 32.7331C28.1862 32.4539 28.0035 32.2158 27.7532 32.0713C27.5029 31.9268 27.2054 31.8876 26.9262 31.9624C26.647 32.0372 26.409 32.2199 26.2645 32.4702C26.12 32.7205 26.0808 33.018 26.1556 33.2972Z" fill="#4A3E3E"/>
<path id="Vector_18" d="M30.3661 32.1689C30.4409 32.4481 30.6235 32.6861 30.8738 32.8306C31.1241 32.9752 31.4216 33.0143 31.7008 32.9395C31.98 32.8647 32.218 32.6821 32.3626 32.4317C32.5071 32.1814 32.5462 31.884 32.4714 31.6048C32.3966 31.3256 32.214 31.0875 31.9636 30.943C31.7133 30.7985 31.4159 30.7593 31.1367 30.8341C30.8575 30.909 30.6194 31.0916 30.4749 31.3419C30.3304 31.5922 30.2912 31.8897 30.3661 32.1689Z" fill="#4A3E3E"/>
<path id="Vector_19" d="M30.9129 34.2085C30.9877 34.4877 31.1704 34.7257 31.4207 34.8703C31.671 35.0148 31.9685 35.0539 32.2477 34.9791C32.5269 34.9043 32.7649 34.7217 32.9094 34.4714C33.0539 34.221 33.0931 33.9236 33.0183 33.6444C32.9435 33.3652 32.7608 33.1271 32.5105 32.9826C32.2602 32.8381 31.9627 32.7989 31.6835 32.8738C31.4044 32.9486 31.1663 33.1312 31.0218 33.3815C30.8773 33.6318 30.8381 33.9293 30.9129 34.2085Z" fill="#4A3E3E"/>
</g>
<defs>
<clipPath id="clip0_126_1778">
<rect width="34.8743" height="34.8743" fill="white" transform="translate(0.644043 9.6698) rotate(-15)"/>
</clipPath>
</defs>
</svg>
