<svg width="30" height="30" viewBox="0 0 30 30" fill="none" xmlns="http://www.w3.org/2000/svg">
<g id="vuesax/linear/sms-edit">
<g id="vuesax/linear/sms-edit_2">
<g id="sms-edit">
<path id="Vector" d="M15 25.625H8.75C5 25.625 2.5 23.75 2.5 19.375V10.625C2.5 6.25 5 4.375 8.75 4.375H21.25C25 4.375 27.5 6.25 27.5 10.625V14.375" stroke="#666666" stroke-width="1.5" stroke-miterlimit="10" stroke-linecap="round" stroke-linejoin="round"/>
<path id="Vector_2" d="M21.25 11.25L17.3375 14.375C16.05 15.4 13.9375 15.4 12.65 14.375L8.75 11.25" stroke="#666666" stroke-width="1.5" stroke-miterlimit="10" stroke-linecap="round" stroke-linejoin="round"/>
<g id="Group">
<path id="Vector_3" d="M24.0123 18.4625L19.5873 22.8875C19.4123 23.0625 19.2498 23.3875 19.2123 23.625L18.9748 25.3125C18.8873 25.925 19.3123 26.35 19.9248 26.2625L21.6123 26.025C21.8498 25.9875 22.1873 25.825 22.3498 25.65L26.7748 21.225C27.5373 20.4625 27.8998 19.575 26.7748 18.45C25.6623 17.3375 24.7748 17.7 24.0123 18.4625Z" stroke="#666666" stroke-width="1.5" stroke-miterlimit="10" stroke-linecap="round" stroke-linejoin="round"/>
<path id="Vector_4" d="M23.375 19.1C23.75 20.45 24.8 21.5 26.15 21.875" stroke="#666666" stroke-width="1.5" stroke-miterlimit="10" stroke-linecap="round" stroke-linejoin="round"/>
</g>
</g>
</g>
</g>
</svg>
