<svg width="20" height="20" viewBox="0 0 20 20" fill="none" xmlns="http://www.w3.org/2000/svg">
<g id="Collect">
<path id="Star 1 (Stroke)" fill-rule="evenodd" clip-rule="evenodd" d="M8.87284 1.5745C9.29882 0.586171 10.7013 0.586169 11.1273 1.5745L12.9792 5.87107C13.1241 6.20712 13.4409 6.43722 13.8053 6.47099L18.4678 6.90305C19.5402 7.00243 19.9736 8.33515 19.1645 9.04535L15.6472 12.1326C15.3719 12.3742 15.2508 12.7469 15.3314 13.1042L16.3607 17.6671C16.5974 18.7169 15.4628 19.5405 14.5367 18.9911L10.5103 16.6024C10.1958 16.4158 9.80441 16.4158 9.48985 16.6024L5.46343 18.9911C4.53738 19.5405 3.40272 18.7169 3.63951 17.6671L4.6688 13.1042C4.74939 12.7469 4.62823 12.3742 4.35298 12.1326L0.835709 9.04535C0.0265801 8.33515 0.459979 7.00243 1.53238 6.90305L6.19489 6.47099C6.55927 6.43722 6.8761 6.20712 7.02094 5.87107L8.87284 1.5745ZM10.1837 3.51909C10.1143 3.35797 9.88586 3.35797 9.81642 3.51909L8.19289 7.28583C8.01521 7.69807 7.6263 7.98038 7.17899 8.02184L3.09221 8.40055C2.9174 8.41675 2.84679 8.6342 2.97873 8.75001L6.06208 11.4564C6.39958 11.7526 6.54813 12.2094 6.44936 12.6472L5.54694 16.6477C5.50833 16.8189 5.69317 16.9533 5.84409 16.8638L9.37346 14.7699C9.75973 14.5407 10.2404 14.5407 10.6267 14.7699L14.1561 16.8638C14.307 16.9533 14.4918 16.8189 14.4532 16.6477L13.5508 12.6472C13.452 12.2094 13.6006 11.7526 13.9381 11.4564L17.0214 8.75001C17.1534 8.6342 17.0828 8.41675 16.908 8.40055L12.8212 8.02184C12.3739 7.98038 11.985 7.69807 11.8073 7.28583L10.1837 3.51909Z" fill="#333333"/>
</g>
</svg>
